<svg xmlns="http://www.w3.org/2000/svg" version="1.1" xmlns:xlink="http://www.w3.org/1999/xlink" xmlns:svgjs="http://svgjs.com/svgjs" width="500" height="500"><svg xmlns="http://www.w3.org/2000/svg" xmlns:xlink="http://www.w3.org/1999/xlink" width="500" zoomAndPan="magnify" viewBox="0 0 375 374.999991" height="500" preserveAspectRatio="xMidYMid meet" version="1.0"><path stroke-linecap="butt" transform="matrix(0.75, 0, 0, 0.75, 0.0000045, 28.124998)" fill="none" stroke-linejoin="miter" d="M 93.75 12.500003 L 406.250021 12.500003 " stroke="#000000" stroke-width="25" stroke-opacity="1" stroke-miterlimit="4"></path><path stroke-linecap="round" transform="matrix(0.75, 0, 0, 0.75, 0.0000045, 28.124998)" fill-opacity="1" fill="#000000" fill-rule="nonzero" stroke-linejoin="round" d="M 12.499995 12.500003 C 12.499995 -8.208331 29.291663 -24.999999 49.999997 -24.999999 C 70.708332 -24.999999 87.5 -8.208331 87.5 12.500003 C 87.5 33.208338 70.708332 50.000006 49.999997 50.000006 C 29.291663 50.000006 12.499995 33.208338 12.499995 12.500003 " stroke="#000000" stroke-width="25" stroke-opacity="1" stroke-miterlimit="4"></path><path stroke-linecap="round" transform="matrix(0.75, 0, 0, 0.75, 0.0000045, 28.124998)" fill-opacity="1" fill="#000000" fill-rule="nonzero" stroke-linejoin="round" d="M 487.500026 12.500003 C 487.500026 33.208338 470.708358 50.000006 450.000024 50.000006 C 429.291689 50.000006 412.500021 33.208338 412.500021 12.500003 C 412.500021 -8.208331 429.291689 -24.999999 450.000024 -24.999999 C 470.708358 -24.999999 487.500026 -8.208331 487.500026 12.500003 " stroke="#000000" stroke-width="25" stroke-opacity="1" stroke-miterlimit="4"></path><path stroke-linecap="butt" transform="matrix(-0.537959, 0.522589, -0.522589, -0.537959, 344.030226, 53.600358)" fill="none" stroke-linejoin="miter" d="M 0.000884724 12.502468 L 511.893094 12.498173 " stroke="#000000" stroke-width="25" stroke-opacity="1" stroke-miterlimit="4"></path><path stroke-linecap="round" transform="matrix(-0.537959, 0.522589, -0.522589, -0.537959, 344.030226, 53.600358)" fill-opacity="1" fill="#000000" fill-rule="nonzero" stroke-linejoin="round" d="M 593.145266 12.499253 C 593.143448 33.213791 576.355479 50.002183 555.64094 50.000365 C 534.933767 49.99844 518.145376 33.210471 518.143565 12.499668 C 518.141753 -8.211134 534.933352 -25.003261 555.644261 -24.997708 C 576.355064 -24.999519 593.143455 -8.211549 593.145266 12.499253 " stroke="#000000" stroke-width="25" stroke-opacity="1" stroke-miterlimit="4"></path><path stroke-linecap="butt" transform="matrix(0.75, 0, 0, 0.75, 37.500002, 328.124978)" fill="none" stroke-linejoin="miter" d="M -0.00000271667 12.50003 L 356.250021 12.50003 " stroke="#000000" stroke-width="25" stroke-opacity="1" stroke-miterlimit="4"></path><path stroke-linecap="round" transform="matrix(0.75, 0, 0, 0.75, 37.500002, 328.124978)" fill-opacity="1" fill="#000000" fill-rule="nonzero" stroke-linejoin="round" d="M 437.500026 12.50003 C 437.500026 33.208364 420.708358 50.000032 400.000024 50.000032 C 379.291689 50.000032 362.500021 33.208364 362.500021 12.50003 C 362.500021 -8.208305 379.291689 -24.999973 400.000024 -24.999973 C 420.708358 -24.999973 437.500026 -8.208305 437.500026 12.50003 " stroke="#000000" stroke-width="25" stroke-opacity="1" stroke-miterlimit="4"></path></svg><style>@media (prefers-color-scheme: light) { :root { filter: none; } }
@media (prefers-color-scheme: dark) { :root { filter: invert(100%); } }
</style></svg>